<svg xmlns="http://www.w3.org/2000/svg" viewBox="0 0 24 30" x="0px" y="0px"><title>menu_hamburger_2</title><path d="M19,11H12a1,1,0,0,0,0,2h7a1,1,0,0,0,0-2Zm0,6H5a1,1,0,0,0,0,2H19a1,1,0,0,0,0-2ZM5,7H19a1,1,0,0,0,0-2H5A1,1,0,0,0,5,7Z"/><text x="0" y="39" fill="#000000" font-size="5px" font-weight="bold" font-family="'Helvetica Neue', Helvetica, Arial-Unicode, Arial, Sans-serif">Created by kreationspace</text><text x="0" y="44" fill="#000000" font-size="5px" font-weight="bold" font-family="'Helvetica Neue', Helvetica, Arial-Unicode, Arial, Sans-serif">from the Noun Project</text></svg>